<svg width="20" height="8" viewBox="0 0 20 8" fill="none" xmlns="http://www.w3.org/2000/svg">
<path d="M0.5 3.18188C0.223858 3.18188 0 3.40574 0 3.68188C0 3.95803 0.223858 4.18188 0.5 4.18188V3.68188V3.18188ZM19.8634 4.03544C20.0587 3.84018 20.0587 3.52359 19.8634 3.32833L16.6814 0.146351C16.4861 -0.0489113 16.1696 -0.0489113 15.9743 0.146351C15.779 0.341613 15.779 0.658195 15.9743 0.853458L18.8027 3.68188L15.9743 6.51031C15.779 6.70557 15.779 7.02216 15.9743 7.21742C16.1696 7.41268 16.4861 7.41268 16.6814 7.21742L19.8634 4.03544ZM0.5 3.68188V4.18188H19.5098V3.68188V3.18188H0.5V3.68188Z" fill="#EDEDED"/>
</svg>
