<svg xmlns="http://www.w3.org/2000/svg" width="63" height="64" fill="none" xmlns:v="https://vecta.io/nano"><g clip-path="url(#A)"><path d="M22.112 20.753a.9.9 0 0 1 .327 1.048.54.54 0 0 0-.006.164c.012.113.063.325.362.565l.374.29.334.254c.256.198.529.433.783.738.529.638.871 1.469 1.002 2.716.072.684.026 1.337-.12 1.926-.414 1.672-1.624 2.783-2.99 2.926s-2.78-.692-3.533-2.24a5.58 5.58 0 0 1-.518-1.859c-.061-.584.021-1.296.169-1.962s.378-1.365.669-1.938c.34-.742.861-1.388 1.27-1.829l.709-.695.05-.041.015-.014.005-.004.003-.002a.9.9 0 0 1 1.096-.041m.253 12.417a4.86 4.86 0 0 0 2.993-1.451l.138.329c.508 1.308.683 2.973.819 4.26l.007.066c.387 3.684-.072 5.944-.716 7.328a4.86 4.86 0 0 1-1.002 1.457c-.168.16-.353.301-.553.42 0 0-.219.106-.369.122a1.44 1.44 0 0 1-.386-.043 3.06 3.06 0 0 1-.628-.296 4.86 4.86 0 0 1-1.283-1.217c-.917-1.218-1.836-3.334-2.224-7.019l-.007-.064c-.135-1.289-.31-2.952-.085-4.34l.066-.351a4.86 4.86 0 0 0 3.23.803m7.716 4.57c-.628-.004-1.253-.081-1.863-.23l-.114-1.4-.056-.53c.583.205 1.204.326 1.843.349l-.369-3.516a3.6 3.6 0 0 1 3.204-3.957l3.518-.37a6.3 6.3 0 0 0-3.829-4.329 6.3 6.3 0 0 0-5.747.614 5.76 5.76 0 0 0-.862-1.585 8.1 8.1 0 0 1 7.45-.628 8.1 8.1 0 0 1 4.791 5.739l1.838-.193a3.6 3.6 0 0 1 3.957 3.204l.753 7.161a3.6 3.6 0 0 1-3.204 3.957l-7.16.753a3.6 3.6 0 0 1-3.957-3.204l-.191-1.835zm8.154-8.052a8.1 8.1 0 0 1-6.365 7.86l.193 1.838a1.8 1.8 0 0 0 1.978 1.602l7.161-.753a1.8 1.8 0 0 0 1.602-1.978l-.753-7.16a1.8 1.8 0 0 0-1.978-1.602l-1.839.193zm-1.804.19l-3.518.37a1.8 1.8 0 0 0-1.602 1.978l.37 3.518a6.3 6.3 0 0 0 4.75-5.866z" fill="#2776b7"/></g><path d="M42.188 6.814c.355-.825-.015-1.788-.854-2.111-5.96-2.295-12.507-2.496-18.596-.543-6.601 2.117-12.211 6.622-15.781 12.672S2.103 30.062 3.342 37.032s4.919 13.252 10.35 17.672 12.243 6.675 19.162 6.343 13.471-3.226 18.433-8.144 7.992-11.521 8.525-18.576c.491-6.498-1.167-12.97-4.683-18.39-.497-.766-1.54-.914-2.266-.36-.707.539-.847 1.541-.367 2.289 3.069 4.781 4.514 10.474 4.082 16.191-.473 6.252-3.158 12.104-7.555 16.462s-10.203 6.923-16.335 7.217-12.168-1.705-16.981-5.621-8.074-9.484-9.172-15.66.041-12.541 3.204-17.902 8.135-9.353 13.985-11.229c5.317-1.705 11.03-1.557 16.249.394.864.323 1.852-.055 2.216-.903z" fill="#2776b7"/><defs><clipPath id="A"><path fill="#fff" transform="matrix(.994522 -.104528 .104528 .994522 15.4912 19.4127)" d="M0 0h28.8v28.8H0z"/></clipPath></defs></svg>